<svg width="654" height="654" viewBox="0 0 654 654" fill="none" xmlns="http://www.w3.org/2000/svg">
<path fill-rule="evenodd" clip-rule="evenodd" d="M321.527 41C301.985 66.1989 240.17 118.86 149.248 127.911C138.62 172.137 129.809 278.384 179.59 349.558C229.371 420.732 294.956 467.667 321.527 482.238V41ZM322.021 41C341.563 66.1989 402.369 119.374 493.291 128.425C503.919 172.652 512.73 278.898 462.949 350.073C413.169 421.247 348.591 467.667 322.021 482.238V41Z" fill="black"/>
<path d="M149.248 127.911L149.001 125.423C147.942 125.528 147.066 126.292 146.817 127.326L149.248 127.911ZM321.527 41H324.027C324.027 39.9313 323.347 38.9808 322.336 38.6347C321.325 38.2886 320.206 38.6235 319.551 39.4679L321.527 41ZM179.59 349.558L177.541 350.991L179.59 349.558ZM321.527 482.238L320.324 484.43C321.099 484.855 322.04 484.84 322.8 484.389C323.56 483.939 324.027 483.122 324.027 482.238H321.527ZM493.291 128.425L495.722 127.841C495.473 126.806 494.597 126.043 493.538 125.937L493.291 128.425ZM322.021 41L323.996 39.4679C323.341 38.6235 322.222 38.2886 321.211 38.6347C320.2 38.9808 319.521 39.9313 319.521 41H322.021ZM322.021 482.238H319.521C319.521 483.122 319.987 483.939 320.747 484.389C321.507 484.84 322.448 484.855 323.223 484.43L322.021 482.238ZM149.496 130.398C241.213 121.268 303.615 68.1766 323.502 42.5321L319.551 39.4679C300.355 64.2212 239.127 116.451 149.001 125.423L149.496 130.398ZM181.638 348.125C157.108 313.053 146.935 269.205 144.26 228.465C141.586 187.742 146.421 150.376 151.679 128.495L146.817 127.326C141.448 149.672 136.562 187.542 139.271 228.793C141.979 270.027 152.291 314.889 177.541 350.991L181.638 348.125ZM322.729 480.046C296.44 465.63 231.166 418.937 181.638 348.125L177.541 350.991C227.575 422.527 293.472 469.705 320.324 484.43L322.729 480.046ZM319.027 41V482.238H324.027V41H319.027ZM493.538 125.937C403.435 116.968 343.21 64.2432 323.996 39.4679L320.045 42.5321C339.916 68.1547 401.303 121.78 493.043 130.913L493.538 125.937ZM464.998 351.505C490.248 315.404 500.56 270.542 503.268 229.307C505.977 188.056 501.091 150.186 495.722 127.841L490.86 129.009C496.118 150.89 500.953 188.257 498.279 228.98C495.604 269.719 485.431 313.567 460.901 348.64L464.998 351.505ZM323.223 484.43C350.082 469.701 414.967 423.036 464.998 351.505L460.901 348.64C411.37 419.457 347.101 465.634 320.819 480.046L323.223 484.43ZM319.521 41V482.238H324.521V41H319.521Z" fill="black"/>
<path fill-rule="evenodd" clip-rule="evenodd" d="M338.519 41C319.519 65.5 259.419 116.7 171.019 125.5C160.686 168.5 152.119 271.8 200.519 341C248.919 410.2 312.686 455.833 338.519 470V41ZM339 41C358 65.5 417.12 117.2 505.52 126C515.853 169 524.42 272.3 476.02 341.5C427.62 410.7 364.833 455.833 339 470V41Z" fill="#9997FF"/>
<path d="M171.019 125.5L170.772 123.012C169.713 123.118 168.837 123.881 168.589 124.916L171.019 125.5ZM338.519 41H341.019C341.019 39.9313 340.34 38.9808 339.329 38.6347C338.318 38.2886 337.199 38.6235 336.544 39.4679L338.519 41ZM200.519 341L202.568 339.567L200.519 341ZM338.519 470L337.317 472.192C338.092 472.617 339.033 472.601 339.793 472.151C340.553 471.701 341.019 470.883 341.019 470H338.519ZM505.52 126L507.95 125.416C507.702 124.381 506.826 123.618 505.767 123.512L505.52 126ZM339 41L340.976 39.4679C340.321 38.6235 339.201 38.2886 338.19 38.6347C337.179 38.9808 336.5 39.9313 336.5 41H339ZM476.02 341.5L473.971 340.067L476.02 341.5ZM339 470H336.5C336.5 470.883 336.966 471.701 337.726 472.151C338.486 472.601 339.428 472.617 340.202 472.192L339 470ZM171.267 127.988C260.462 119.109 321.149 67.4777 340.495 42.5321L336.544 39.4679C317.889 63.5223 258.376 114.291 170.772 123.012L171.267 127.988ZM202.568 339.567C178.728 305.482 168.839 262.864 166.239 223.261C163.64 183.675 168.339 147.352 173.45 126.084L168.589 124.916C163.366 146.648 158.616 183.475 161.25 223.589C163.883 263.686 173.911 307.318 198.471 342.433L202.568 339.567ZM339.722 467.808C314.17 453.796 250.715 408.405 202.568 339.567L198.471 342.433C247.124 411.995 311.202 457.871 337.317 472.192L339.722 467.808ZM336.019 41V470H341.019V41H336.019ZM505.767 123.512C418.186 114.794 359.647 63.5442 340.976 39.4679L337.024 42.5321C356.353 67.4558 416.053 119.606 505.272 128.488L505.767 123.512ZM478.068 342.933C502.628 307.818 512.656 264.186 515.289 224.089C517.923 183.975 513.173 147.148 507.95 125.416L503.089 126.584C508.2 147.852 512.899 184.175 510.3 223.761C507.7 263.364 497.811 305.982 473.971 340.067L478.068 342.933ZM340.202 472.192C366.324 457.867 429.419 412.49 478.068 342.933L473.971 340.067C425.821 408.91 363.343 453.799 337.798 467.808L340.202 472.192ZM336.5 41V470H341.5V41H336.5Z" fill="#9997FF"/>
<mask id="mask0_2301_1681" style="mask-type:alpha" maskUnits="userSpaceOnUse" x="160" y="38" width="357" height="435">
<path fill-rule="evenodd" clip-rule="evenodd" d="M338.519 41C319.519 65.5 259.419 116.7 171.019 125.5C160.686 168.5 152.119 271.8 200.519 341C248.919 410.2 312.686 455.833 338.519 470V41ZM339 41C358 65.5 417.12 117.2 505.52 126C515.853 169 524.42 272.3 476.02 341.5C427.62 410.7 364.833 455.833 339 470V41Z" fill="#9997FF"/>
<path d="M171.019 125.5L170.772 123.012C169.713 123.118 168.837 123.881 168.589 124.916L171.019 125.5ZM338.519 41H341.019C341.019 39.9313 340.34 38.9808 339.329 38.6347C338.318 38.2886 337.199 38.6235 336.544 39.4679L338.519 41ZM200.519 341L202.568 339.567L200.519 341ZM338.519 470L337.317 472.192C338.092 472.617 339.033 472.601 339.793 472.151C340.553 471.701 341.019 470.883 341.019 470H338.519ZM505.52 126L507.95 125.416C507.702 124.381 506.826 123.618 505.767 123.512L505.52 126ZM339 41L340.976 39.4679C340.321 38.6235 339.201 38.2886 338.19 38.6347C337.179 38.9808 336.5 39.9313 336.5 41H339ZM476.02 341.5L473.971 340.067L476.02 341.5ZM339 470H336.5C336.5 470.883 336.966 471.701 337.726 472.151C338.486 472.601 339.428 472.617 340.202 472.192L339 470ZM171.267 127.988C260.462 119.109 321.149 67.4777 340.495 42.5321L336.544 39.4679C317.889 63.5223 258.376 114.291 170.772 123.012L171.267 127.988ZM202.568 339.567C178.728 305.482 168.839 262.864 166.239 223.261C163.64 183.675 168.339 147.352 173.45 126.084L168.589 124.916C163.366 146.648 158.616 183.475 161.25 223.589C163.883 263.686 173.911 307.318 198.471 342.433L202.568 339.567ZM339.722 467.808C314.17 453.796 250.715 408.405 202.568 339.567L198.471 342.433C247.124 411.995 311.202 457.871 337.317 472.192L339.722 467.808ZM336.019 41V470H341.019V41H336.019ZM505.767 123.512C418.186 114.794 359.647 63.5442 340.976 39.4679L337.024 42.5321C356.353 67.4558 416.053 119.606 505.272 128.488L505.767 123.512ZM478.068 342.933C502.628 307.818 512.656 264.186 515.289 224.089C517.923 183.975 513.173 147.148 507.95 125.416L503.089 126.584C508.2 147.852 512.899 184.175 510.3 223.761C507.7 263.364 497.811 305.982 473.971 340.067L478.068 342.933ZM340.202 472.192C366.324 457.867 429.419 412.49 478.068 342.933L473.971 340.067C425.821 408.91 363.343 453.799 337.798 467.808L340.202 472.192ZM336.5 41V470H341.5V41H336.5Z" fill="#9997FF"/>
</mask>
<g mask="url(#mask0_2301_1681)">
<mask id="mask1_2301_1681" style="mask-type:alpha" maskUnits="userSpaceOnUse" x="161" y="38" width="357" height="435">
<path fill-rule="evenodd" clip-rule="evenodd" d="M339.519 41C320.519 65.5 260.419 116.7 172.019 125.5C161.686 168.5 153.119 271.8 201.519 341C249.919 410.2 313.686 455.833 339.519 470V41ZM340 41C359 65.5 418.12 117.2 506.52 126C516.853 169 525.42 272.3 477.02 341.5C428.62 410.7 365.833 455.833 340 470V41Z" fill="#9997FF"/>
<path d="M172.019 125.5L171.772 123.012C170.713 123.118 169.837 123.881 169.589 124.916L172.019 125.5ZM339.519 41H342.019C342.019 39.9313 341.34 38.9808 340.329 38.6347C339.318 38.2886 338.199 38.6235 337.544 39.4679L339.519 41ZM201.519 341L203.568 339.567L201.519 341ZM339.519 470L338.317 472.192C339.092 472.617 340.033 472.601 340.793 472.151C341.553 471.701 342.019 470.883 342.019 470H339.519ZM506.52 126L508.95 125.416C508.702 124.381 507.826 123.618 506.767 123.512L506.52 126ZM340 41L341.976 39.4679C341.321 38.6235 340.201 38.2886 339.19 38.6347C338.179 38.9808 337.5 39.9313 337.5 41H340ZM477.02 341.5L474.971 340.067L477.02 341.5ZM340 470H337.5C337.5 470.883 337.966 471.701 338.726 472.151C339.486 472.601 340.428 472.617 341.202 472.192L340 470ZM172.267 127.988C261.462 119.109 322.149 67.4777 341.495 42.5321L337.544 39.4679C318.889 63.5223 259.376 114.291 171.772 123.012L172.267 127.988ZM203.568 339.567C179.728 305.482 169.839 262.864 167.239 223.261C164.64 183.675 169.339 147.352 174.45 126.084L169.589 124.916C164.366 146.648 159.616 183.475 162.25 223.589C164.883 263.686 174.911 307.318 199.471 342.433L203.568 339.567ZM340.722 467.808C315.17 453.796 251.715 408.405 203.568 339.567L199.471 342.433C248.124 411.995 312.202 457.871 338.317 472.192L340.722 467.808ZM337.019 41V470H342.019V41H337.019ZM506.767 123.512C419.186 114.794 360.647 63.5442 341.976 39.4679L338.024 42.5321C357.353 67.4558 417.053 119.606 506.272 128.488L506.767 123.512ZM479.068 342.933C503.628 307.818 513.656 264.186 516.289 224.089C518.923 183.975 514.173 147.148 508.95 125.416L504.089 126.584C509.2 147.852 513.899 184.175 511.3 223.761C508.7 263.364 498.811 305.982 474.971 340.067L479.068 342.933ZM341.202 472.192C367.324 457.867 430.419 412.49 479.068 342.933L474.971 340.067C426.821 408.91 364.343 453.799 338.798 467.808L341.202 472.192ZM337.5 41V470H342.5V41H337.5Z" fill="#9997FF"/>
</mask>
<g mask="url(#mask1_2301_1681)">
<rect x="445.81" y="4" width="30" height="431" transform="rotate(38.0775 445.81 4)" fill="white" fill-opacity="0.3"/>
<rect x="482.81" y="39" width="12.8288" height="431" transform="rotate(38.0775 482.81 39)" fill="white" fill-opacity="0.3"/>
</g>
</g>
<path fill-rule="evenodd" clip-rule="evenodd" d="M338.394 106C325.145 123.084 283.235 158.787 221.592 164.924C214.386 194.909 208.413 266.942 242.163 315.197C275.914 363.451 320.379 395.273 338.394 405.151V106ZM338.499 106C351.748 123.084 393.203 159.136 454.847 165.272C462.052 195.257 468.026 267.291 434.276 315.545C400.525 363.8 356.513 395.121 338.499 405V106Z" fill="#FDE77D"/>
<path d="M221.592 164.924L221.394 162.934C220.547 163.018 219.846 163.629 219.648 164.456L221.592 164.924ZM338.394 106H340.394C340.394 105.145 339.85 104.385 339.041 104.108C338.233 103.831 337.337 104.099 336.813 104.774L338.394 106ZM242.163 315.197L240.524 316.343L242.163 315.197ZM338.394 405.151L337.432 406.905C338.052 407.245 338.805 407.232 339.413 406.872C340.021 406.512 340.394 405.858 340.394 405.151H338.394ZM454.847 165.272L456.791 164.805C456.592 163.978 455.892 163.367 455.045 163.282L454.847 165.272ZM338.499 106L340.08 104.774C339.556 104.099 338.66 103.831 337.852 104.108C337.043 104.385 336.499 105.145 336.499 106H338.499ZM434.276 315.545L432.637 314.399L434.276 315.545ZM338.499 405H336.499C336.499 405.707 336.872 406.361 337.48 406.721C338.088 407.081 338.841 407.093 339.461 406.754L338.499 405ZM221.79 166.914C284.07 160.714 326.448 124.667 339.974 107.226L336.813 104.774C323.841 121.502 282.401 156.86 221.394 162.934L221.79 166.914ZM243.802 314.05C227.215 290.335 220.326 260.668 218.515 233.078C216.704 205.501 219.979 180.198 223.537 165.391L219.648 164.456C216 179.634 212.685 205.341 214.523 233.34C216.361 261.326 223.361 291.804 240.524 316.343L243.802 314.05ZM339.355 403.398C321.567 393.643 277.35 362.015 243.802 314.05L240.524 316.343C274.477 364.888 319.192 396.903 337.432 406.905L339.355 403.398ZM336.394 106V405.151H340.394V106H336.394ZM455.045 163.282C394.053 157.211 353.064 121.517 340.08 104.774L336.919 107.226C350.433 124.652 392.354 161.061 454.649 167.263L455.045 163.282ZM435.915 316.692C453.078 292.153 460.078 261.675 461.915 233.689C463.754 205.689 460.439 179.983 456.791 164.805L452.902 165.74C456.46 180.547 459.735 205.849 457.924 233.427C456.112 261.017 449.224 290.684 432.637 314.399L435.915 316.692ZM339.461 406.754C357.698 396.752 401.96 365.238 435.915 316.692L432.637 314.399C399.09 362.362 355.329 393.49 337.538 403.246L339.461 406.754ZM336.499 106V405H340.499V106H336.499Z" fill="#FDE77D"/>
<path d="M454.085 165.344L452.14 165.811V165.811L454.085 165.344ZM454.454 164.741L454.922 166.685V166.685L454.454 164.741ZM459.145 233.479L457.149 233.348L459.145 233.479ZM433.59 315.213L431.951 314.067L431.951 314.067L433.59 315.213ZM434.41 315.786L432.771 314.64L432.771 314.64L434.41 315.786ZM460.143 233.545L458.147 233.414L460.143 233.545ZM455.057 165.11L453.113 165.577V165.577L455.057 165.11ZM456.03 164.876C456.223 165.682 455.727 166.492 454.922 166.685L453.987 162.796C452.644 163.119 451.818 164.469 452.14 165.811L456.03 164.876ZM461.141 233.611C462.976 205.664 459.666 180.008 456.03 164.876L452.14 165.811C455.687 180.572 458.957 205.824 457.149 233.348L461.141 233.611ZM435.229 316.36C452.32 291.923 459.306 261.547 461.141 233.611L457.149 233.348C455.341 260.889 448.467 290.454 431.951 314.067L435.229 316.36ZM434.86 314.271C435.539 314.746 435.704 315.681 435.229 316.36L431.951 314.067C431.16 315.198 431.436 316.757 432.567 317.549L434.86 314.271ZM432.771 314.64C433.246 313.961 434.181 313.796 434.86 314.271L432.567 317.549C433.699 318.34 435.257 318.064 436.049 316.933L432.771 314.64ZM458.147 233.414C456.332 261.054 449.43 290.822 432.771 314.64L436.049 316.933C453.284 292.291 460.298 261.712 462.139 233.676L458.147 233.414ZM453.113 165.577C456.682 180.431 459.962 205.784 458.147 233.414L462.139 233.676C463.981 205.624 460.66 179.867 457.002 164.643L453.113 165.577ZM454.922 166.685C454.116 166.879 453.306 166.383 453.113 165.577L457.002 164.643C456.679 163.3 455.329 162.474 453.987 162.796L454.922 166.685Z" fill="black"/>
<path d="M337.519 41C318.519 65.5 258.419 116.7 170.019 125.5C159.686 168.5 151.119 271.8 199.519 341C247.919 410.2 309.667 459.333 335.5 473.5" stroke="black" stroke-width="4" stroke-linecap="round" stroke-linejoin="round"/>
<path d="M171 509H489" stroke="black" stroke-width="4" stroke-linecap="round"/>
<path d="M73.8984 541.232C76.2103 541.336 78.7637 541.388 81.5586 541.388C84.9056 541.388 88.2008 541.388 91.4443 541.388C94.7223 541.388 98.1901 541.336 101.848 541.232V546.356H98.1729C96.7581 546.356 95.6712 546.477 94.9121 546.719C94.153 546.96 93.5837 547.288 93.2041 547.702C92.859 548.082 92.652 548.548 92.583 549.1C92.514 549.617 92.4795 550.169 92.4795 550.756V602.1H116.029C116.857 602.1 117.496 601.72 117.944 600.961C118.393 600.202 118.721 599.098 118.928 597.648C119.135 596.199 119.256 594.439 119.29 592.369C119.325 590.264 119.342 587.883 119.342 585.227H125.294V608H73.8984V602.876H76.5381C78.1598 602.876 79.402 602.755 80.2646 602.514C81.1618 602.272 81.8001 601.927 82.1797 601.479C82.5938 601.03 82.8353 600.53 82.9043 599.978C82.9733 599.391 83.0078 598.753 83.0078 598.062V551.325C83.0078 551.049 83.0078 550.773 83.0078 550.497C83.0423 550.221 83.0596 549.945 83.0596 549.669C83.0596 549.151 82.9906 548.686 82.8525 548.271C82.749 547.857 82.473 547.512 82.0244 547.236C81.5758 546.96 80.9202 546.753 80.0576 546.615C79.195 546.443 78.0218 546.356 76.5381 546.356H73.8984V541.232ZM177.052 586.417H140.407C140.442 589.177 140.873 591.61 141.701 593.715C142.529 595.82 143.702 597.614 145.221 599.098C146.739 600.547 148.55 601.668 150.655 602.462C152.795 603.256 155.158 603.652 157.746 603.652C161.369 603.652 164.509 602.91 167.166 601.427C169.823 599.943 171.876 597.648 173.325 594.543L179.588 595.526C178.001 599.909 175.206 603.273 171.203 605.619C167.235 607.931 162.353 609.087 156.556 609.087C152.657 609.087 149.154 608.5 146.049 607.327C142.943 606.154 140.304 604.498 138.13 602.358C135.991 600.219 134.352 597.717 133.213 594.854C132.074 591.955 131.505 588.66 131.505 584.968C131.505 581.241 132.091 577.894 133.265 574.927C134.438 571.925 136.094 569.354 138.233 567.215C140.373 565.076 142.943 563.419 145.945 562.246C148.982 561.073 152.346 560.486 156.038 560.486C159.765 560.486 163.112 561.056 166.079 562.194C169.047 563.299 171.565 564.92 173.636 567.06C175.706 569.199 177.293 571.804 178.397 574.875C179.536 577.946 180.123 581.483 180.157 585.485L177.052 586.417ZM171.772 581.759C171.358 576.549 169.806 572.598 167.114 569.906C164.423 567.215 160.765 565.869 156.142 565.869C153.968 565.869 151.984 566.249 150.189 567.008C148.395 567.732 146.825 568.768 145.479 570.113C144.134 571.424 143.03 573.046 142.167 574.979C141.339 576.911 140.77 579.171 140.459 581.759H171.772ZM202.051 548.582V561.677H214.473V566.283H202.103V592.214C202.103 593.974 202.12 595.561 202.154 596.976C202.189 598.356 202.344 599.546 202.62 600.547C202.931 601.548 203.414 602.324 204.069 602.876C204.725 603.394 205.674 603.652 206.916 603.652C207.399 603.652 207.882 603.566 208.365 603.394C208.848 603.187 209.262 602.859 209.607 602.41C209.987 601.962 210.28 601.392 210.487 600.702C210.729 599.978 210.85 599.098 210.85 598.062L215.56 597.597C215.56 599.632 215.266 601.375 214.68 602.824C214.128 604.273 213.368 605.464 212.402 606.396C211.471 607.293 210.367 607.965 209.09 608.414C207.813 608.863 206.467 609.087 205.053 609.087C202.637 609.087 200.671 608.69 199.152 607.896C197.669 607.103 196.495 606.016 195.633 604.636C194.805 603.221 194.235 601.496 193.925 599.46C193.614 597.424 193.459 595.164 193.459 592.68V566.283H184.971V562.194C185.833 562.16 186.799 562.108 187.869 562.039C188.939 561.936 189.957 561.849 190.923 561.78C192.062 561.677 193.2 561.573 194.339 561.47C194.373 561.228 194.425 560.797 194.494 560.176C194.563 559.52 194.632 558.778 194.701 557.95C194.77 557.088 194.856 556.208 194.96 555.311C195.063 554.379 195.15 553.534 195.219 552.774C195.288 551.981 195.34 551.325 195.374 550.808C195.443 550.256 195.478 549.962 195.478 549.928L202.051 548.582ZM239.989 555.983C239.989 557.709 239.748 559.072 239.265 560.072C238.816 561.038 238.16 561.763 237.298 562.246C236.435 562.695 235.383 562.988 234.141 563.126C232.898 563.229 231.501 563.299 229.948 563.333V559.348C230.707 559.313 231.294 559.192 231.708 558.985C232.157 558.744 232.484 558.433 232.691 558.054C232.898 557.64 233.019 557.191 233.054 556.708C233.123 556.19 233.157 555.638 233.157 555.052C233.157 554.603 233.14 554.017 233.105 553.292C233.105 552.567 233.088 551.877 233.054 551.222C233.054 550.532 233.036 549.945 233.002 549.462C233.002 548.944 233.002 548.668 233.002 548.634L229.12 548.789C229.12 548.651 229.068 548.151 228.965 547.288C228.861 546.391 228.741 545.425 228.603 544.39C228.499 543.354 228.396 542.406 228.292 541.543C228.188 540.646 228.137 540.128 228.137 539.99H237.764C238.212 542.578 238.695 545.252 239.213 548.013C239.73 550.773 239.989 553.43 239.989 555.983ZM286.416 576.014H281.551C281.413 572.563 280.257 569.906 278.083 568.043C275.944 566.145 272.838 565.196 268.767 565.196C267.041 565.196 265.54 565.403 264.264 565.817C262.987 566.231 261.917 566.784 261.055 567.474C260.192 568.164 259.554 568.975 259.14 569.906C258.726 570.803 258.519 571.735 258.519 572.701C258.519 573.771 258.795 574.72 259.347 575.548C259.933 576.341 260.744 577.049 261.779 577.67C262.814 578.291 264.039 578.843 265.454 579.326C266.903 579.809 268.491 580.275 270.216 580.724C273.011 581.448 275.53 582.207 277.772 583.001C280.05 583.795 281.965 584.743 283.518 585.848C285.105 586.917 286.33 588.229 287.192 589.781C288.055 591.299 288.486 593.18 288.486 595.423C288.486 597.631 288.038 599.581 287.141 601.271C286.243 602.962 284.967 604.394 283.311 605.567C281.689 606.706 279.722 607.569 277.41 608.155C275.098 608.776 272.528 609.087 269.698 609.087C266.11 609.087 263.125 608.656 260.744 607.793C258.363 606.93 256.414 605.567 254.896 603.704L254.378 608C253.584 607.965 252.825 607.948 252.101 607.948C251.376 607.914 250.617 607.931 249.823 608V592.628H254.844C255.051 596.631 256.345 599.563 258.726 601.427C261.106 603.256 264.367 604.17 268.508 604.17C270.268 604.17 271.872 603.997 273.321 603.652C274.805 603.273 276.064 602.772 277.1 602.151C278.135 601.53 278.946 600.771 279.532 599.874C280.119 598.977 280.412 597.907 280.412 596.665C280.412 595.319 279.998 594.181 279.17 593.249C278.376 592.317 277.289 591.507 275.909 590.816C274.563 590.092 272.976 589.471 271.147 588.953C269.353 588.401 267.455 587.832 265.454 587.245C263.004 586.486 260.848 585.71 258.984 584.916C257.156 584.088 255.62 583.156 254.378 582.121C253.136 581.086 252.204 579.878 251.583 578.498C250.962 577.118 250.651 575.496 250.651 573.633C250.651 571.839 251.031 570.148 251.79 568.561C252.584 566.973 253.705 565.576 255.154 564.368C256.604 563.126 258.346 562.177 260.382 561.521C262.452 560.831 264.764 560.486 267.317 560.486C270.147 560.486 272.821 560.9 275.34 561.729C277.859 562.522 279.895 563.73 281.447 565.352C281.447 565.317 281.499 565.127 281.603 564.782C281.741 564.403 281.879 563.989 282.017 563.54C282.155 563.022 282.327 562.401 282.534 561.677C283.155 561.711 283.742 561.729 284.294 561.729C284.777 561.729 285.208 561.729 285.588 561.729C286.002 561.694 286.278 561.677 286.416 561.677V576.014Z" fill="black"/>
<path d="M368.332 541.232C372.576 541.232 376.234 541.698 379.305 542.63C382.376 543.562 384.912 544.873 386.913 546.563C388.914 548.254 390.398 550.29 391.364 552.671C392.33 555.017 392.813 557.605 392.813 560.435C392.813 563.264 392.365 565.852 391.468 568.198C390.571 570.51 389.139 572.511 387.172 574.202C385.24 575.858 382.721 577.152 379.615 578.084C376.544 579.016 372.818 579.481 368.436 579.481H356.428V598.891C356.428 599.857 356.531 600.616 356.738 601.168C356.945 601.686 357.308 602.082 357.825 602.358C358.343 602.6 359.016 602.755 359.844 602.824C360.672 602.859 361.707 602.876 362.949 602.876H365.589V608C364.657 608 363.76 608 362.897 608C362.035 607.965 361.138 607.948 360.206 607.948C359.309 607.948 358.326 607.948 357.256 607.948C356.221 607.914 355.03 607.896 353.685 607.896C350.51 607.896 347.681 607.914 345.196 607.948C342.712 607.983 340.262 608 337.847 608V602.876H340.538C342.125 602.876 343.35 602.79 344.213 602.617C345.076 602.41 345.714 602.134 346.128 601.789C346.542 601.444 346.784 601.013 346.853 600.495C346.922 599.978 346.956 599.374 346.956 598.684V549.721C346.956 548.927 346.853 548.306 346.646 547.857C346.438 547.409 346.007 547.081 345.352 546.874C344.73 546.632 343.816 546.494 342.608 546.46C341.401 546.391 339.813 546.356 337.847 546.356V541.232H368.332ZM356.428 574.15H366.313C372.145 574.15 376.458 573.046 379.253 570.838C382.082 568.595 383.497 565.179 383.497 560.59C383.497 558.347 383.187 556.363 382.565 554.638C381.944 552.912 380.961 551.463 379.615 550.29C378.27 549.117 376.527 548.237 374.388 547.65C372.248 547.029 369.643 546.719 366.572 546.719H356.428V574.15ZM436.394 571.407H433.288C432.598 569.751 431.735 568.63 430.7 568.043C429.665 567.422 428.25 567.111 426.456 567.111C424.765 567.111 423.213 567.508 421.798 568.302C420.383 569.095 419.158 570.234 418.123 571.718C417.088 573.167 416.277 574.927 415.69 576.997C415.138 579.033 414.845 581.31 414.811 583.829C414.776 583.864 414.759 584.295 414.759 585.123C414.759 585.917 414.742 586.917 414.707 588.125C414.707 589.333 414.707 590.644 414.707 592.059C414.707 593.439 414.707 594.75 414.707 595.992C414.707 597.234 414.707 598.287 414.707 599.149C414.707 599.978 414.707 600.426 414.707 600.495C414.707 601.22 414.845 601.789 415.121 602.203C415.432 602.583 415.932 602.876 416.622 603.083C417.312 603.256 418.227 603.359 419.365 603.394C420.504 603.394 421.901 603.394 423.558 603.394V608C422.453 608 421.384 608 420.349 608C419.348 607.965 418.296 607.948 417.191 607.948C416.087 607.948 414.914 607.948 413.672 607.948C412.464 607.914 411.118 607.896 409.635 607.896C408.358 607.896 407.202 607.914 406.167 607.948C405.132 607.948 404.148 607.948 403.217 607.948C402.32 607.948 401.44 607.965 400.577 608C399.715 608 398.817 608 397.886 608V603.394C399.853 603.394 401.371 603.359 402.44 603.29C403.545 603.187 404.355 603.014 404.873 602.772C405.391 602.531 405.684 602.186 405.753 601.737C405.856 601.289 405.908 600.719 405.908 600.029V568.664C405.908 568.077 405.805 567.629 405.598 567.318C405.425 566.973 405.046 566.732 404.459 566.594C403.907 566.421 403.113 566.335 402.078 566.335C401.077 566.3 399.766 566.283 398.145 566.283V561.677C398.524 561.677 399.111 561.694 399.904 561.729C400.732 561.729 401.543 561.729 402.337 561.729H405.391C406.84 561.729 408.289 561.694 409.738 561.625C411.222 561.556 412.74 561.504 414.293 561.47V570.89C415.949 567.646 418.244 565.11 421.177 563.281C424.144 561.418 427.646 560.486 431.684 560.486C433.202 560.486 434.772 560.59 436.394 560.797V571.407ZM466.724 560.486C470.347 560.486 473.676 561.056 476.713 562.194C479.749 563.333 482.354 564.972 484.528 567.111C486.737 569.251 488.445 571.839 489.652 574.875C490.86 577.911 491.464 581.241 491.464 584.864C491.464 588.349 490.86 591.61 489.652 594.646C488.445 597.648 486.754 600.219 484.58 602.358C482.406 604.498 479.801 606.154 476.765 607.327C473.728 608.5 470.381 609.087 466.724 609.087C463.066 609.087 459.719 608.518 456.683 607.379C453.681 606.206 451.093 604.549 448.919 602.41C446.745 600.236 445.054 597.648 443.847 594.646C442.674 591.61 442.087 588.349 442.087 584.864C442.087 581.241 442.691 577.929 443.898 574.927C445.106 571.89 446.797 569.302 448.971 567.163C451.145 564.989 453.732 563.333 456.734 562.194C459.771 561.056 463.101 560.486 466.724 560.486ZM466.724 565.869C464.308 565.869 462.134 566.318 460.202 567.215C458.27 568.112 456.614 569.371 455.233 570.993C453.888 572.615 452.853 574.616 452.128 576.997C451.403 579.343 451.041 581.949 451.041 584.812C451.041 587.504 451.403 590.04 452.128 592.421C452.887 594.767 453.939 596.786 455.285 598.477C456.665 600.133 458.322 601.41 460.254 602.307C462.186 603.204 464.343 603.652 466.724 603.652C469.104 603.652 471.261 603.204 473.193 602.307C475.126 601.41 476.782 600.133 478.162 598.477C479.542 596.786 480.595 594.767 481.319 592.421C482.078 590.04 482.458 587.504 482.458 584.812C482.458 581.983 482.078 579.378 481.319 576.997C480.595 574.616 479.542 572.615 478.162 570.993C476.816 569.371 475.16 568.112 473.193 567.215C471.261 566.318 469.104 565.869 466.724 565.869ZM495.449 561.677C495.587 561.677 496.053 561.694 496.847 561.729C497.675 561.729 498.624 561.729 499.693 561.729C500.798 561.729 501.902 561.746 503.006 561.78C504.11 561.78 505.024 561.78 505.749 561.78C506.612 561.78 507.423 561.78 508.182 561.78C508.941 561.78 509.717 561.78 510.511 561.78C511.304 561.746 512.132 561.729 512.995 561.729C513.892 561.694 514.858 561.677 515.894 561.677L515.997 565.507C514.065 565.541 512.702 565.645 511.908 565.817C511.115 565.955 510.718 566.249 510.718 566.697C510.718 567.18 510.959 567.698 511.442 568.25C511.925 568.768 512.512 569.423 513.202 570.217L521.846 580.103L528.626 572.028C529.661 570.786 530.507 569.751 531.162 568.923C531.818 568.06 532.146 567.37 532.146 566.853C532.146 566.335 531.783 565.99 531.059 565.817C530.368 565.61 529.195 565.507 527.539 565.507L527.591 561.677C529.282 561.677 530.852 561.694 532.301 561.729C533.75 561.763 535.13 561.78 536.441 561.78C538.063 561.78 539.65 561.78 541.203 561.78C542.79 561.746 544.636 561.711 546.741 561.677V566.283H545.344C544.171 566.283 543.256 566.335 542.601 566.438C541.945 566.507 541.324 566.766 540.737 567.215C540.151 567.629 539.461 568.302 538.667 569.233C537.908 570.131 536.821 571.459 535.406 573.219C534.716 574.047 533.854 575.082 532.818 576.324C531.783 577.532 530.783 578.705 529.816 579.844C528.678 581.189 527.522 582.552 526.349 583.933C528.799 586.728 531.007 589.229 532.974 591.438C533.802 592.369 534.63 593.301 535.458 594.232C536.286 595.13 537.011 595.94 537.632 596.665C538.287 597.39 538.822 598.011 539.236 598.528C539.65 599.046 539.892 599.322 539.961 599.356C540.858 600.392 541.565 601.185 542.083 601.737C542.635 602.255 543.17 602.652 543.688 602.928C544.205 603.169 544.792 603.307 545.447 603.342C546.103 603.376 547.017 603.394 548.19 603.394V608C546.776 608 545.309 607.983 543.791 607.948C542.307 607.914 540.513 607.896 538.408 607.896C538.236 607.896 537.753 607.914 536.959 607.948C536.165 607.948 535.251 607.948 534.216 607.948C533.215 607.948 532.197 607.965 531.162 608C530.161 608 529.368 608 528.781 608V604.17C530.783 604.17 532.111 603.842 532.767 603.187C532.387 602.6 531.938 601.944 531.421 601.22C530.903 600.461 530.334 599.684 529.713 598.891C529.092 598.097 528.453 597.286 527.798 596.458C527.142 595.63 526.487 594.836 525.831 594.077C524.313 592.283 522.708 590.437 521.018 588.539C518.982 590.954 517.136 593.111 515.479 595.009C514.789 595.837 514.099 596.648 513.409 597.441C512.754 598.201 512.15 598.908 511.598 599.563C511.08 600.185 510.649 600.702 510.304 601.116C509.959 601.53 509.769 601.755 509.734 601.789C509.665 602.065 509.631 602.238 509.631 602.307C509.631 602.893 510.01 603.342 510.77 603.652C511.563 603.928 512.892 604.101 514.755 604.17L514.703 608C514.565 608 514.117 608 513.357 608C512.598 607.965 511.701 607.948 510.666 607.948C509.665 607.914 508.613 607.896 507.509 607.896C506.405 607.896 505.438 607.896 504.61 607.896C503.575 607.896 502.626 607.914 501.764 607.948C500.936 607.948 500.142 607.948 499.383 607.948C498.624 607.948 497.882 607.965 497.157 608C496.433 608 495.656 608 494.828 608V603.394H497.261C497.916 603.394 498.486 603.342 498.969 603.238C499.452 603.1 499.918 602.893 500.366 602.617C500.815 602.307 501.281 601.893 501.764 601.375C502.247 600.857 502.816 600.202 503.472 599.408C503.506 599.339 503.713 599.063 504.093 598.58C504.507 598.062 505.007 597.459 505.594 596.769C506.18 596.044 506.836 595.233 507.561 594.336C508.32 593.439 509.079 592.542 509.838 591.645C511.632 589.505 513.633 587.107 515.842 584.45L503.575 570.32C502.678 569.285 501.953 568.509 501.401 567.991C500.884 567.439 500.366 567.042 499.849 566.801C499.331 566.525 498.744 566.369 498.089 566.335C497.433 566.3 496.553 566.283 495.449 566.283V561.677ZM558.335 622.078C559.232 622.216 560.095 622.354 560.923 622.492C561.613 622.596 562.32 622.682 563.045 622.751C563.77 622.82 564.373 622.854 564.856 622.854C565.581 622.854 566.254 622.699 566.875 622.389C567.531 622.078 568.169 621.561 568.79 620.836C569.446 620.146 570.101 619.214 570.757 618.041C571.447 616.902 572.172 615.488 572.931 613.797L574.897 608.621C571.757 601.824 568.911 595.699 566.357 590.247C565.253 587.935 564.166 585.641 563.097 583.363C562.062 581.086 561.113 578.981 560.25 577.049C559.387 575.082 558.663 573.478 558.076 572.235C557.49 570.959 557.127 570.182 556.989 569.906C556.61 569.078 556.265 568.44 555.954 567.991C555.644 567.508 555.281 567.146 554.867 566.904C554.488 566.628 553.987 566.456 553.366 566.387C552.78 566.318 551.986 566.283 550.985 566.283H549.122V561.677C551.089 561.677 553.021 561.694 554.919 561.729C556.851 561.763 558.663 561.78 560.354 561.78C561.975 561.78 563.804 561.763 565.84 561.729C567.91 561.694 570.239 561.677 572.827 561.677V566.283H568.272C567.341 566.283 566.599 566.456 566.047 566.801C565.529 567.111 565.253 567.681 565.219 568.509C565.253 569.199 565.409 569.975 565.685 570.838C565.961 571.701 566.288 572.598 566.668 573.529C567.082 574.426 567.496 575.341 567.91 576.272C568.359 577.17 568.773 578.032 569.152 578.86L579.038 599.978C580.418 596.493 581.799 593.059 583.179 589.678C583.765 588.229 584.369 586.745 584.99 585.227C585.611 583.674 586.232 582.138 586.854 580.62C587.475 579.067 588.061 577.566 588.613 576.117C589.2 574.668 589.735 573.357 590.218 572.184C590.528 571.424 590.77 570.769 590.942 570.217C591.115 569.665 591.218 569.147 591.253 568.664C591.218 568.146 591.098 567.732 590.891 567.422C590.718 567.111 590.373 566.87 589.855 566.697C589.338 566.525 588.596 566.421 587.63 566.387C586.664 566.318 585.404 566.283 583.852 566.283V561.677C585.646 561.677 587.371 561.694 589.027 561.729C590.718 561.763 592.392 561.78 594.048 561.78C595.877 561.78 597.757 561.763 599.689 561.729C601.622 561.694 603.589 561.677 605.59 561.677V566.283C604.106 566.283 602.933 566.335 602.07 566.438C601.242 566.542 600.569 566.784 600.052 567.163C599.534 567.508 599.103 568.026 598.758 568.716C598.413 569.371 597.981 570.269 597.464 571.407L579.607 613.538C578.365 616.471 577.192 618.921 576.088 620.888C574.984 622.854 573.862 624.424 572.724 625.598C571.585 626.805 570.377 627.651 569.101 628.134C567.858 628.651 566.444 628.91 564.856 628.91C564.097 628.91 563.321 628.841 562.527 628.703C561.734 628.565 560.992 628.41 560.302 628.237C559.508 628.065 558.732 627.84 557.973 627.564L558.335 622.078Z" fill="black"/>
<mask id="mask2_2301_1681" style="mask-type:alpha" maskUnits="userSpaceOnUse" x="214" y="103" width="249" height="305">
<path fill-rule="evenodd" clip-rule="evenodd" d="M338.394 106C325.145 123.084 283.235 158.787 221.592 164.924C214.386 194.909 208.413 266.942 242.163 315.197C275.914 363.451 320.379 395.273 338.394 405.151V106ZM338.499 106C351.748 123.084 393.203 159.136 454.847 165.272C462.052 195.257 468.026 267.291 434.276 315.545C400.525 363.8 356.513 395.121 338.499 405V106Z" fill="#FDE77D"/>
<path d="M221.592 164.924L221.394 162.934C220.547 163.018 219.846 163.629 219.648 164.456L221.592 164.924ZM338.394 106H340.394C340.394 105.145 339.85 104.385 339.041 104.108C338.233 103.831 337.337 104.099 336.813 104.774L338.394 106ZM242.163 315.197L240.524 316.343L242.163 315.197ZM338.394 405.151L337.432 406.905C338.052 407.245 338.805 407.232 339.413 406.872C340.021 406.512 340.394 405.858 340.394 405.151H338.394ZM454.847 165.272L456.791 164.805C456.592 163.978 455.892 163.367 455.045 163.282L454.847 165.272ZM338.499 106L340.08 104.774C339.556 104.099 338.66 103.831 337.852 104.108C337.043 104.385 336.499 105.145 336.499 106H338.499ZM434.276 315.545L432.637 314.399L434.276 315.545ZM338.499 405H336.499C336.499 405.707 336.872 406.361 337.48 406.721C338.088 407.081 338.841 407.093 339.461 406.754L338.499 405ZM221.79 166.914C284.07 160.714 326.448 124.667 339.974 107.226L336.813 104.774C323.841 121.502 282.401 156.86 221.394 162.934L221.79 166.914ZM243.802 314.05C227.215 290.335 220.326 260.668 218.515 233.078C216.704 205.501 219.979 180.198 223.537 165.391L219.648 164.456C216 179.634 212.685 205.341 214.523 233.34C216.361 261.326 223.361 291.804 240.524 316.343L243.802 314.05ZM339.355 403.398C321.567 393.643 277.35 362.015 243.802 314.05L240.524 316.343C274.477 364.888 319.192 396.903 337.432 406.905L339.355 403.398ZM336.394 106V405.151H340.394V106H336.394ZM455.045 163.282C394.053 157.211 353.064 121.517 340.08 104.774L336.919 107.226C350.433 124.652 392.354 161.061 454.649 167.263L455.045 163.282ZM435.915 316.692C453.078 292.153 460.078 261.675 461.915 233.689C463.754 205.689 460.439 179.983 456.791 164.805L452.902 165.74C456.46 180.547 459.735 205.849 457.924 233.427C456.112 261.017 449.224 290.684 432.637 314.399L435.915 316.692ZM339.461 406.754C357.698 396.752 401.96 365.238 435.915 316.692L432.637 314.399C399.09 362.362 355.329 393.49 337.538 403.246L339.461 406.754ZM336.499 106V405H340.499V106H336.499Z" fill="#FDE77D"/>
</mask>
<g mask="url(#mask2_2301_1681)">
<rect x="423.81" y="22" width="30" height="431" transform="rotate(38.0775 423.81 22)" fill="white" fill-opacity="0.3"/>
<rect x="460.81" y="57" width="12.8288" height="431" transform="rotate(38.0775 460.81 57)" fill="white" fill-opacity="0.3"/>
</g>
<path d="M241.266 178.738C244.668 178.891 248.426 178.967 252.539 178.967C257.465 178.967 262.314 178.967 267.088 178.967C271.912 178.967 277.016 178.891 282.398 178.738V186.279H276.99C274.908 186.279 273.309 186.457 272.191 186.812C271.074 187.168 270.236 187.65 269.678 188.26C269.17 188.818 268.865 189.504 268.764 190.316C268.662 191.078 268.611 191.891 268.611 192.754V268.316H303.27C304.488 268.316 305.428 267.758 306.088 266.641C306.748 265.523 307.23 263.898 307.535 261.766C307.84 259.633 308.018 257.043 308.068 253.996C308.119 250.898 308.145 247.395 308.145 243.484H316.904V277H241.266V269.459H245.15C247.537 269.459 249.365 269.281 250.635 268.926C251.955 268.57 252.895 268.062 253.453 267.402C254.062 266.742 254.418 266.006 254.52 265.193C254.621 264.33 254.672 263.391 254.672 262.375V193.592C254.672 193.186 254.672 192.779 254.672 192.373C254.723 191.967 254.748 191.561 254.748 191.154C254.748 190.393 254.646 189.707 254.443 189.098C254.291 188.488 253.885 187.98 253.225 187.574C252.564 187.168 251.6 186.863 250.33 186.66C249.061 186.406 247.334 186.279 245.15 186.279H241.266V178.738Z" fill="black"/>
<path d="M378.055 270.738C384.301 270.738 389.684 271.424 394.203 272.795C398.723 274.166 402.455 276.096 405.4 278.584C408.346 281.072 410.529 284.068 411.951 287.572C413.373 291.025 414.084 294.834 414.084 298.998C414.084 303.162 413.424 306.971 412.104 310.424C410.783 313.826 408.676 316.771 405.781 319.26C402.938 321.697 399.23 323.602 394.66 324.973C390.141 326.344 384.656 327.029 378.207 327.029H360.535V355.594C360.535 357.016 360.688 358.133 360.992 358.945C361.297 359.707 361.83 360.291 362.592 360.697C363.354 361.053 364.344 361.281 365.562 361.383C366.781 361.434 368.305 361.459 370.133 361.459H374.018V369C372.646 369 371.326 369 370.057 369C368.787 368.949 367.467 368.924 366.096 368.924C364.775 368.924 363.328 368.924 361.754 368.924C360.23 368.873 358.479 368.848 356.498 368.848C351.826 368.848 347.662 368.873 344.006 368.924C340.35 368.975 336.744 369 333.189 369V361.459H337.15C339.486 361.459 341.289 361.332 342.559 361.078C343.828 360.773 344.768 360.367 345.377 359.859C345.986 359.352 346.342 358.717 346.443 357.955C346.545 357.193 346.596 356.305 346.596 355.289V283.23C346.596 282.062 346.443 281.148 346.139 280.488C345.834 279.828 345.199 279.346 344.234 279.041C343.32 278.686 341.975 278.482 340.197 278.432C338.42 278.33 336.084 278.279 333.189 278.279V270.738H378.055ZM360.535 319.184H375.084C383.666 319.184 390.014 317.559 394.127 314.309C398.291 311.008 400.373 305.98 400.373 299.227C400.373 295.926 399.916 293.006 399.002 290.467C398.088 287.928 396.641 285.795 394.66 284.068C392.68 282.342 390.115 281.047 386.967 280.184C383.818 279.27 379.984 278.812 375.465 278.812H360.535V319.184Z" fill="black"/>
</svg>
